<svg width="39" height="46" viewBox="0 0 39 46" fill="none" xmlns="http://www.w3.org/2000/svg">
<path fill-rule="evenodd" clip-rule="evenodd" d="M28.3837 17.1434H26.9395C26.8713 17.1472 26.8031 17.1375 26.7388 17.115C26.6745 17.0926 26.6154 17.0577 26.5649 17.0125C26.5144 16.9672 26.4736 16.9126 26.4448 16.8517C26.416 16.7907 26.3999 16.7248 26.3972 16.6576C26.4002 16.5907 26.4166 16.525 26.4456 16.4644C26.4745 16.4038 26.5154 16.3494 26.5658 16.3045C26.6162 16.2595 26.6752 16.2249 26.7394 16.2025C26.8035 16.1802 26.8715 16.1706 26.9395 16.1744H28.3837C28.4513 16.1696 28.5192 16.1785 28.5831 16.2007C28.6471 16.2229 28.7057 16.2578 28.7553 16.3032C28.805 16.3487 28.8446 16.4037 28.8716 16.4649C28.8987 16.5261 28.9127 16.5922 28.9127 16.6589C28.9127 16.7257 28.8987 16.7917 28.8716 16.8529C28.8446 16.9141 28.805 16.9691 28.7553 17.0146C28.7057 17.0601 28.6471 17.095 28.5831 17.1171C28.5192 17.1393 28.4513 17.1483 28.3837 17.1434V17.1434ZM26.2302 11.1925L25.246 12.1616C25.1395 12.2598 24.9988 12.3142 24.8528 12.3134C24.7888 12.3116 24.7259 12.2972 24.6676 12.2712C24.6094 12.2451 24.557 12.2078 24.5136 12.1616C24.416 12.0636 24.3613 11.9319 24.3613 11.7947C24.3613 11.6575 24.416 11.5258 24.5136 11.4278L25.5415 10.4588C25.5856 10.411 25.6393 10.3728 25.6993 10.3466C25.7593 10.3205 25.8241 10.307 25.8897 10.307C25.9553 10.307 26.0201 10.3205 26.0801 10.3466C26.1401 10.3728 26.1938 10.411 26.2379 10.4588C26.3304 10.5597 26.381 10.6912 26.3796 10.8271C26.3781 10.9631 26.3248 11.0935 26.2302 11.1925V11.1925ZM26.2302 22.8312C26.188 22.8789 26.1358 22.9171 26.0773 22.9433C26.0188 22.9695 25.9553 22.9831 25.891 22.983C25.8262 22.9866 25.7615 22.9747 25.7024 22.9483C25.6433 22.9218 25.5916 22.8817 25.5518 22.8312L24.5239 21.8622C24.4749 21.8138 24.4362 21.7565 24.4097 21.6934C24.3833 21.6303 24.3698 21.5627 24.3699 21.4944C24.37 21.4261 24.3838 21.3586 24.4104 21.2956C24.4371 21.2326 24.476 21.1753 24.5252 21.1272C24.5743 21.079 24.6325 21.0408 24.6966 21.0148C24.7607 20.9888 24.8294 20.9754 24.8987 20.9756C24.968 20.9757 25.0366 20.9892 25.1006 21.0155C25.1646 21.0417 25.2227 21.0801 25.2717 21.1284L26.2585 22.1405C26.3057 22.1871 26.3426 22.2429 26.3669 22.3042C26.3912 22.3656 26.4024 22.4312 26.3997 22.497C26.3971 22.5628 26.3806 22.6273 26.3515 22.6866C26.3223 22.7458 26.281 22.7985 26.2302 22.8413V22.8312ZM20.4379 24.9388C20.4379 25.0677 20.3859 25.1912 20.2934 25.2823C20.2009 25.3734 20.0754 25.4246 19.9445 25.4246C19.8137 25.4246 19.6882 25.3734 19.5956 25.2823C19.5031 25.1912 19.4511 25.0677 19.4511 24.9388V23.5169C19.4441 23.4489 19.4516 23.3803 19.4732 23.3153C19.4947 23.2504 19.5299 23.1907 19.5764 23.14C19.6229 23.0893 19.6797 23.0487 19.7431 23.021C19.8065 22.9933 19.8751 22.9789 19.9445 22.9789C20.0139 22.9789 20.0825 22.9933 20.1459 23.021C20.2093 23.0487 20.2661 23.0893 20.3126 23.14C20.3591 23.1907 20.3943 23.2504 20.4159 23.3153C20.4375 23.3803 20.445 23.4489 20.4379 23.5169V24.9388ZM15.3729 12.1793C15.3251 12.2267 15.2683 12.2644 15.2056 12.29C15.143 12.3157 15.0758 12.329 15.008 12.329C14.9401 12.329 14.873 12.3157 14.8103 12.29C14.7477 12.2644 14.6909 12.2267 14.6431 12.1793L13.6409 11.1925C13.542 11.0949 13.4867 10.9626 13.4869 10.8248C13.4871 10.6869 13.543 10.5548 13.6421 10.4575C13.7413 10.3602 13.8757 10.3057 14.0157 10.3059C14.1557 10.3062 14.2898 10.3611 14.3887 10.4588L15.3729 11.4202C15.474 11.5215 15.5306 11.6578 15.5306 11.7998C15.5306 11.9417 15.474 12.078 15.3729 12.1793ZM15.3729 21.8723L14.3887 22.8413C14.2831 22.9394 14.1432 22.9938 13.9981 22.9931C13.9341 22.9916 13.871 22.9774 13.8127 22.9513C13.7544 22.9252 13.7021 22.8878 13.6588 22.8413C13.6104 22.7982 13.5716 22.7455 13.5451 22.6866C13.5185 22.6278 13.5048 22.5641 13.5048 22.4998C13.5048 22.4354 13.5185 22.3717 13.5451 22.3129C13.5716 22.2541 13.6104 22.2014 13.6588 22.1582L14.6431 21.1461C14.7423 21.0486 14.8768 20.9939 15.017 20.9939C15.1572 20.9939 15.2916 21.0486 15.3909 21.1461C15.4809 21.2473 15.5291 21.3782 15.5257 21.5127C15.5224 21.6472 15.4678 21.7755 15.3729 21.8723V21.8723ZM12.9444 17.1434H11.5516C11.4833 17.1475 11.4148 17.1381 11.3502 17.1158C11.2856 17.0935 11.2262 17.0587 11.1754 17.0134C11.1247 16.9682 11.0836 16.9134 11.0547 16.8523C11.0257 16.7912 11.0094 16.725 11.0068 16.6576C11.0098 16.5905 11.0263 16.5246 11.0554 16.4638C11.0845 16.403 11.1256 16.3485 11.1763 16.3035C11.227 16.2585 11.2863 16.2239 11.3508 16.2018C11.4152 16.1796 11.4835 16.1703 11.5516 16.1744H12.9444C13.0804 16.1689 13.2129 16.2167 13.3131 16.3073C13.4133 16.3979 13.473 16.5238 13.479 16.6576C13.4804 16.7253 13.4672 16.7926 13.4403 16.8549C13.4134 16.9172 13.3734 16.9731 13.3228 17.0191C13.2723 17.065 13.2124 17.0998 13.1472 17.1213C13.082 17.1427 13.0129 17.1503 12.9444 17.1434V17.1434ZM19.4511 8.41948C19.4441 8.35152 19.4516 8.28286 19.4732 8.21793C19.4947 8.15301 19.5299 8.09326 19.5764 8.04256C19.6229 7.99186 19.6797 7.95133 19.7431 7.92359C19.8065 7.89585 19.8751 7.88152 19.9445 7.88152C20.0139 7.88152 20.0825 7.89585 20.1459 7.92359C20.2093 7.95133 20.2661 7.99186 20.3126 8.04256C20.3591 8.09326 20.3943 8.15301 20.4159 8.21793C20.4375 8.28286 20.445 8.35152 20.4379 8.41948V9.79082C20.445 9.85878 20.4375 9.92744 20.4159 9.99237C20.3943 10.0573 20.3591 10.117 20.3126 10.1677C20.2661 10.2184 20.2093 10.259 20.1459 10.2867C20.0825 10.3145 20.0139 10.3288 19.9445 10.3288C19.8751 10.3288 19.8065 10.3145 19.7431 10.2867C19.6797 10.259 19.6229 10.2184 19.5764 10.1677C19.5299 10.117 19.4947 10.0573 19.4732 9.99237C19.4516 9.92744 19.4441 9.85878 19.4511 9.79082V8.41948Z" fill="white"/>
<path fill-rule="evenodd" clip-rule="evenodd" d="M34.6224 7.98439C32.4692 4.56898 29.1496 2.02145 25.2599 0.79947C21.3703 -0.422511 17.1656 -0.238853 13.4011 1.31745C13.2196 1.39221 13.0548 1.50145 12.9161 1.63892C12.7774 1.7764 12.6676 1.93942 12.5929 2.11869C12.5182 2.29795 12.4801 2.48994 12.4808 2.6837C12.4814 2.87746 12.5209 3.0692 12.5968 3.24796C12.6727 3.42671 12.7837 3.589 12.9233 3.72554C13.0629 3.86208 13.2285 3.97021 13.4106 4.04374C13.5927 4.11728 13.7877 4.15479 13.9845 4.15413C14.1813 4.15347 14.376 4.11465 14.5575 4.03989C16.5851 3.19537 18.7851 2.82888 20.982 2.96964V2.98735C23.6362 3.15602 26.1885 4.05774 28.346 5.58911C30.5036 7.12048 32.1792 9.21951 33.1807 11.6455V11.6734C33.2652 11.8649 33.339 12.0609 33.4017 12.2603C33.4144 12.2876 33.4255 12.3154 33.4351 12.3438C33.5006 12.5095 33.5572 12.6784 33.6047 12.8499C33.6227 12.9182 33.6407 12.984 33.6561 13.0523C33.6895 13.1839 33.7409 13.3053 33.7743 13.4698C33.812 13.5959 33.8412 13.7244 33.8617 13.8543C33.8771 13.9378 33.8951 14.0213 33.9105 14.0871C34.5518 17.2187 34.0777 20.4723 32.568 23.3001C31.0584 26.1278 28.6054 28.3572 25.6219 29.613C22.6384 30.8688 19.3066 31.0743 16.1873 30.1948C13.068 29.3154 10.3517 27.4048 8.49543 24.7846L8.47744 24.7669C7.28947 23.0894 6.49911 21.1708 6.16464 19.1525C6.38487 19.0536 6.58578 18.9174 6.75826 18.7502C7.07478 18.4584 7.32707 18.1058 7.49947 17.714C7.67187 17.3223 7.7607 16.8999 7.76048 16.473V7.62511C7.75983 7.5599 7.74593 7.49547 7.71959 7.43563C7.69324 7.37579 7.65497 7.32175 7.60707 7.2767C7.55916 7.23166 7.50258 7.19652 7.44065 7.17336C7.37873 7.1502 7.31272 7.13949 7.24652 7.14186C7.117 7.15145 6.99596 7.20897 6.90776 7.30284C6.81956 7.39672 6.77075 7.52 6.77112 7.64788V14.5198C6.76298 14.6206 6.71653 14.7148 6.64105 14.7834C6.56556 14.8521 6.46656 14.8902 6.3638 14.8902C6.26104 14.8902 6.16205 14.8521 6.08656 14.7834C6.01107 14.7148 5.96463 14.6206 5.95649 14.5198V7.65041C5.95685 7.52253 5.90803 7.39925 5.81983 7.30537C5.73163 7.21149 5.61061 7.15398 5.48108 7.14439C5.34869 7.14425 5.22135 7.19443 5.12561 7.28446C5.02986 7.37449 4.97309 7.49742 4.96713 7.62764V14.535C4.9716 14.5903 4.96438 14.6459 4.94594 14.6984C4.9275 14.7509 4.89823 14.799 4.85997 14.8398C4.82171 14.8806 4.7753 14.9131 4.72364 14.9354C4.67198 14.9576 4.6162 14.9691 4.55981 14.9691C4.50343 14.9691 4.44766 14.9576 4.396 14.9354C4.34435 14.9131 4.29793 14.8806 4.25967 14.8398C4.22141 14.799 4.19215 14.7509 4.1737 14.6984C4.15526 14.6459 4.14805 14.5903 4.15251 14.535V7.66813C4.15369 7.60433 4.1421 7.54093 4.1184 7.48155C4.0947 7.42217 4.05933 7.36796 4.01435 7.32203C3.96937 7.2761 3.91564 7.23934 3.85623 7.21385C3.79682 7.18836 3.7329 7.17465 3.66811 7.17348C3.60331 7.17232 3.53892 7.18373 3.47861 7.20707C3.41829 7.23041 3.36323 7.26522 3.31658 7.3095C3.26993 7.35379 3.2326 7.40669 3.20671 7.46519C3.18082 7.52368 3.16689 7.58662 3.16571 7.65041V14.535C3.17018 14.5903 3.16296 14.6459 3.14452 14.6984C3.12608 14.7509 3.09681 14.799 3.05855 14.8398C3.0203 14.8806 2.97388 14.9131 2.92222 14.9354C2.87057 14.9576 2.81478 14.9691 2.7584 14.9691C2.70201 14.9691 2.64624 14.9576 2.59459 14.9354C2.54293 14.9131 2.49651 14.8806 2.45825 14.8398C2.42 14.799 2.39073 14.7509 2.37229 14.6984C2.35384 14.6459 2.34663 14.5903 2.3511 14.535V7.66813C2.35705 7.60173 2.34907 7.53485 2.32765 7.47162C2.30622 7.4084 2.2718 7.35019 2.22654 7.30062C2.18129 7.25105 2.12616 7.21119 2.06458 7.1835C2.00301 7.15581 1.9363 7.14089 1.86862 7.13967C1.80094 7.13845 1.73373 7.15096 1.67117 7.17642C1.6086 7.20187 1.55203 7.23973 1.50497 7.28764C1.45791 7.33555 1.42135 7.39248 1.39759 7.45489C1.37384 7.5173 1.36338 7.58385 1.36687 7.65041V16.4806C1.36846 16.9073 1.45811 17.3291 1.6304 17.7206C1.80269 18.112 2.05401 18.4649 2.36909 18.7578C2.59605 18.9573 2.85704 19.1158 3.14002 19.2258C3.49434 21.7102 4.4076 24.0854 5.81316 26.1779C7.21872 28.2705 9.08111 30.0276 11.2644 31.3211C13.4477 32.6146 15.8967 33.4118 18.4328 33.6545C20.9689 33.8971 23.5281 33.5792 25.9235 32.7239C28.3189 31.8686 30.4901 30.4974 32.2786 28.7105C34.0671 26.9236 35.4278 24.7661 36.2614 22.3954C37.095 20.0247 37.3805 17.5006 37.0969 15.0074C36.8133 12.5142 35.9679 10.1148 34.6224 7.98439Z" fill="white"/>
<path fill-rule="evenodd" clip-rule="evenodd" d="M23.8693 15.1699C23.831 15.1008 23.7674 15.0487 23.6915 15.0243C23.6155 14.9998 23.533 15.0049 23.4607 15.0383L19.9452 16.8246L18.2106 14.7094C18.1841 14.6763 18.1512 14.6487 18.1138 14.6283C18.0763 14.6078 18.0352 14.5948 17.9926 14.5901C17.9501 14.5854 17.907 14.5891 17.8659 14.6009C17.8248 14.6126 17.7865 14.6323 17.7532 14.6588C17.6858 14.7124 17.6425 14.79 17.6329 14.8748C17.6233 14.9596 17.648 15.0448 17.7018 15.1117L19.5366 17.3332C19.5563 17.3542 19.5799 17.3713 19.606 17.3838C19.6511 17.4403 19.7147 17.4795 19.786 17.4947C19.8573 17.51 19.9318 17.5003 19.9966 17.4673L23.7588 15.5722C23.8258 15.5317 23.8746 15.4674 23.8952 15.3926C23.9157 15.3179 23.9065 15.2382 23.8693 15.1699V15.1699Z" fill="white"/>
<path d="M34.8529 43.8788H30.7032L30.0756 45.3425C30.0452 45.4187 29.9981 45.4873 29.9378 45.5434C29.8788 45.5923 29.8112 45.63 29.7383 45.6546C29.6663 45.6813 29.5903 45.6958 29.5134 45.6977C29.4329 45.7003 29.3537 45.6763 29.2885 45.6295C29.2153 45.6066 29.1487 45.5666 29.0945 45.5129C29.0402 45.4592 28.9997 45.3934 28.9765 45.321C28.9257 45.1754 28.9335 45.0161 28.9983 44.8761L32.2049 37.5182C32.2376 37.4404 32.2871 37.3707 32.35 37.3139C32.4128 37.2571 32.4874 37.2145 32.5686 37.1892C32.6498 37.1639 32.7357 37.1565 32.8201 37.1675C32.9045 37.1784 32.9855 37.2075 33.0573 37.2527C33.1481 37.3214 33.2183 37.4131 33.2605 37.5182L36.4888 44.8761C36.5536 45.0161 36.5614 45.1754 36.5106 45.321C36.4921 45.3923 36.4558 45.4578 36.4051 45.5117C36.3544 45.5656 36.2909 45.6061 36.2204 45.6295C36.0789 45.693 35.9185 45.7019 35.7706 45.6546C35.6944 45.6307 35.6246 45.5903 35.5662 45.5363C35.5079 45.4823 35.4624 45.4161 35.4332 45.3425L34.8529 43.8788ZM31.1965 42.7487H34.3813L32.7889 39.0249L31.1965 42.7487Z" fill="white"/>
<path fill-rule="evenodd" clip-rule="evenodd" d="M15.124 45.0656C15.124 45.4148 15.4116 45.6979 15.7664 45.6979L20.3163 45.6979C20.6711 45.6979 20.9587 45.4148 20.9587 45.0656C20.9587 44.7164 20.6711 44.4334 20.3163 44.4334L16.4087 44.4334L16.4087 37.7948C16.4087 37.4456 16.1211 37.1626 15.7664 37.1626C15.4116 37.1626 15.124 37.4456 15.124 37.7948L15.124 45.0656Z" fill="white"/>
<path fill-rule="evenodd" clip-rule="evenodd" d="M12.322 45.6979C12.6824 45.6979 12.9746 45.4148 12.9746 45.0656L12.9746 37.7948C12.9746 37.4456 12.6824 37.1626 12.322 37.1626C11.9616 37.1626 11.6694 37.4456 11.6694 37.7948L11.6694 45.0656C11.6694 45.4148 11.9616 45.6979 12.322 45.6979Z" fill="white"/>
<path fill-rule="evenodd" clip-rule="evenodd" d="M6.20152 45.6036C5.87244 45.4743 5.71227 45.1069 5.84376 44.7832L8.79259 37.5222C8.92408 37.1984 9.29744 37.0408 9.62651 37.1702C9.95559 37.2996 10.1158 37.6669 9.98427 37.9907L7.03545 45.2516C6.90396 45.5754 6.53059 45.733 6.20152 45.6036Z" fill="white"/>
<path fill-rule="evenodd" clip-rule="evenodd" d="M6.63149 45.6036C6.96056 45.4743 7.12074 45.1069 6.98925 44.7832L4.04042 37.5222C3.90893 37.1984 3.53557 37.0408 3.2065 37.1702C2.87742 37.2996 2.71724 37.6669 2.84873 37.9907L5.79756 45.2516C5.92905 45.5754 6.30241 45.733 6.63149 45.6036Z" fill="white"/>
<path fill-rule="evenodd" clip-rule="evenodd" d="M22.6208 45.7159C22.9812 45.7159 23.2734 45.4329 23.2734 45.0837L23.2734 37.8129C23.2734 37.4637 22.9812 37.1806 22.6208 37.1806C22.2604 37.1806 21.9683 37.4637 21.9683 37.8129L21.9683 45.0837C21.9683 45.4329 22.2604 45.7159 22.6208 45.7159Z" fill="white"/>
<path fill-rule="evenodd" clip-rule="evenodd" d="M22.1787 42.5591C21.9289 42.3117 21.9302 41.912 22.1817 41.6663L26.5663 37.3809C26.8177 37.1352 27.2239 37.1365 27.4737 37.3838C27.7234 37.6312 27.7221 38.0309 27.4707 38.2766L23.0861 42.562C22.8347 42.8078 22.4284 42.8064 22.1787 42.5591Z" fill="white"/>
<path fill-rule="evenodd" clip-rule="evenodd" d="M23.5026 40.3972C23.7847 40.1862 24.1873 40.2403 24.4017 40.5179L27.637 44.7068C27.8515 44.9844 27.7965 45.3804 27.5144 45.5914C27.2322 45.8023 26.8297 45.7483 26.6153 45.4707L23.3799 41.2818C23.1655 41.0042 23.2204 40.6081 23.5026 40.3972Z" fill="white"/>
</svg>
