<svg width="46" height="46" viewBox="0 0 46 46" fill="none" xmlns="http://www.w3.org/2000/svg">
<g filter="url(#filter0_d)">

</g>
<path fill-rule="evenodd" clip-rule="evenodd" d="M111.234 68.3493H107.457C107.279 68.359 107.101 68.3341 106.932 68.2759C106.764 68.2177 106.61 68.1275 106.478 68.0105C106.346 67.8935 106.239 67.7521 106.164 67.5945C106.088 67.4369 106.046 67.2663 106.039 67.0926C106.047 66.9195 106.09 66.7496 106.165 66.5928C106.241 66.4359 106.348 66.2953 106.48 66.179C106.612 66.0627 106.766 65.973 106.934 65.9153C107.102 65.8575 107.28 65.8328 107.457 65.8425H111.234C111.411 65.83 111.589 65.8532 111.756 65.9105C111.923 65.9679 112.077 66.0582 112.206 66.1758C112.336 66.2934 112.44 66.4358 112.511 66.5941C112.581 66.7524 112.618 66.9232 112.618 67.0959C112.618 67.2686 112.581 67.4394 112.511 67.5977C112.44 67.756 112.336 67.8984 112.206 68.016C112.077 68.1336 111.923 68.2239 111.756 68.2813C111.589 68.3386 111.411 68.3618 111.234 68.3493V68.3493ZM105.602 52.9546L103.028 55.4615C102.749 55.7157 102.381 55.8562 102 55.8542C101.832 55.8496 101.668 55.8124 101.516 55.745C101.363 55.6775 101.226 55.5812 101.113 55.4615C100.857 55.2081 100.714 54.8674 100.714 54.5124C100.714 54.1574 100.857 53.8166 101.113 53.5633L103.801 51.0564C103.916 50.9327 104.057 50.8339 104.214 50.7663C104.371 50.6986 104.54 50.6637 104.712 50.6637C104.883 50.6637 105.053 50.6986 105.21 50.7663C105.366 50.8339 105.507 50.9327 105.622 51.0564C105.864 51.3175 105.997 51.6577 105.993 52.0093C105.989 52.361 105.85 52.6984 105.602 52.9546V52.9546ZM105.602 83.0634C105.492 83.1868 105.355 83.2857 105.202 83.3534C105.049 83.4212 104.883 83.4562 104.715 83.4561C104.546 83.4655 104.376 83.4346 104.222 83.3662C104.067 83.2978 103.932 83.1939 103.828 83.0634L101.139 80.5565C101.011 80.4314 100.91 80.283 100.841 80.1198C100.772 79.9565 100.736 79.7817 100.737 79.6051C100.737 79.4285 100.773 79.2537 100.843 79.0907C100.912 78.9277 101.014 78.7797 101.143 78.655C101.271 78.5304 101.424 78.4316 101.591 78.3643C101.759 78.2971 101.938 78.2626 102.12 78.2629C102.301 78.2632 102.481 78.2983 102.648 78.3661C102.815 78.434 102.967 78.5333 103.095 78.6583L105.676 81.2765C105.8 81.3971 105.896 81.5413 105.96 81.7C106.023 81.8587 106.052 82.0285 106.046 82.1987C106.039 82.3689 105.996 82.5359 105.919 82.6892C105.843 82.8425 105.735 82.9788 105.602 83.0895V83.0634ZM90.4532 88.5157C90.4532 88.849 90.3172 89.1686 90.0752 89.4043C89.8332 89.64 89.5049 89.7724 89.1627 89.7724C88.8205 89.7724 88.4923 89.64 88.2503 89.4043C88.0083 89.1686 87.8723 88.849 87.8723 88.5157V84.8372C87.8538 84.6614 87.8735 84.4837 87.9299 84.3158C87.9864 84.1478 88.0784 83.9933 88.2 83.8621C88.3216 83.7309 88.4702 83.6261 88.636 83.5543C88.8018 83.4826 88.9812 83.4455 89.1627 83.4455C89.3442 83.4455 89.5236 83.4826 89.6895 83.5543C89.8553 83.6261 90.0038 83.7309 90.1254 83.8621C90.2471 83.9933 90.3391 84.1478 90.3955 84.3158C90.452 84.4837 90.4716 84.6614 90.4532 84.8372V88.5157ZM77.2061 55.5073C77.0812 55.63 76.9325 55.7274 76.7687 55.7938C76.6049 55.8603 76.4292 55.8945 76.2518 55.8945C76.0743 55.8945 75.8986 55.8603 75.7348 55.7938C75.571 55.7274 75.4224 55.63 75.2974 55.5073L72.6762 52.9546C72.4178 52.702 72.2729 52.3598 72.2735 52.0032C72.2742 51.6466 72.4202 51.3049 72.6796 51.0532C72.9389 50.8014 73.2904 50.6604 73.6565 50.661C74.0227 50.6616 74.3735 50.8038 74.632 51.0564L77.2061 53.5437C77.4705 53.8056 77.6186 54.1582 77.6186 54.5255C77.6186 54.8928 77.4705 55.2453 77.2061 55.5073ZM77.2061 80.5827L74.632 83.0895C74.3559 83.3433 73.9901 83.484 73.6104 83.4823C73.443 83.4784 73.2781 83.4416 73.1257 83.3741C72.9732 83.3066 72.8364 83.2098 72.7233 83.0895C72.5964 82.9779 72.495 82.8415 72.4257 82.6893C72.3563 82.5371 72.3204 82.3724 72.3204 82.2059C72.3204 82.0394 72.3563 81.8747 72.4257 81.7225C72.495 81.5703 72.5964 81.434 72.7233 81.3223L75.2974 78.7041C75.557 78.4519 75.9086 78.3103 76.2753 78.3103C76.6419 78.3103 76.9936 78.4519 77.2532 78.7041C77.4887 78.9659 77.6146 79.3044 77.6058 79.6523C77.5971 80.0003 77.4545 80.3323 77.2061 80.5827V80.5827ZM70.8548 68.3493H67.2121C67.0333 68.3599 66.8542 68.3356 66.6852 68.2779C66.5163 68.2201 66.3609 68.13 66.2281 68.013C66.0954 67.8959 65.988 67.7542 65.9123 67.5961C65.8366 67.4381 65.7941 67.2669 65.7872 67.0926C65.7949 66.9189 65.8381 66.7484 65.9142 66.5911C65.9903 66.4339 66.0978 66.2929 66.2304 66.1765C66.3631 66.0601 66.5182 65.9707 66.6868 65.9133C66.8553 65.8559 67.0339 65.8319 67.2121 65.8425H70.8548C71.2103 65.8283 71.557 65.9519 71.8191 66.1862C72.0811 66.4205 72.2371 66.7465 72.2528 67.0926C72.2566 67.2677 72.2221 67.4416 72.1517 67.6028C72.0813 67.764 71.9766 67.9088 71.8444 68.0276C71.7123 68.1464 71.5557 68.2365 71.3851 68.292C71.2145 68.3474 71.0338 68.367 70.8548 68.3493V68.3493ZM87.8723 45.7808C87.8538 45.605 87.8735 45.4274 87.9299 45.2595C87.9864 45.0915 88.0784 44.9369 88.2 44.8058C88.3216 44.6746 88.4702 44.5698 88.636 44.498C88.8018 44.4262 88.9812 44.3892 89.1627 44.3892C89.3442 44.3892 89.5236 44.4262 89.6895 44.498C89.8553 44.5698 90.0038 44.6746 90.1254 44.8058C90.2471 44.9369 90.3391 45.0915 90.3955 45.2595C90.452 45.4274 90.4716 45.605 90.4532 45.7808V49.3284C90.4716 49.5043 90.452 49.6819 90.3955 49.8498C90.3391 50.0178 90.2471 50.1724 90.1254 50.3035C90.0038 50.4347 89.8553 50.5395 89.6895 50.6113C89.5236 50.6831 89.3442 50.7201 89.1627 50.7201C88.9812 50.7201 88.8018 50.6831 88.636 50.6113C88.4702 50.5395 88.3216 50.4347 88.2 50.3035C88.0784 50.1724 87.9864 50.0178 87.9299 49.8498C87.8735 49.6819 87.8538 49.5043 87.8723 49.3284V45.7808Z" fill="white"/>
<path fill-rule="evenodd" clip-rule="evenodd" d="M127.553 44.6553C121.921 35.8198 113.239 29.2294 103.066 26.0682C92.8933 22.907 81.8963 23.3821 72.0508 27.4082C71.576 27.6016 71.1449 27.8842 70.7822 28.2398C70.4195 28.5955 70.1322 29.0172 69.9369 29.481C69.7416 29.9447 69.6419 30.4414 69.6437 30.9426C69.6454 31.4439 69.7486 31.9399 69.9471 32.4023C70.1457 32.8648 70.4359 33.2846 70.8011 33.6378C71.1663 33.991 71.5993 34.2708 72.0755 34.461C72.5517 34.6512 73.0617 34.7483 73.5764 34.7466C74.0911 34.7448 74.6004 34.6444 75.0752 34.451C80.3782 32.2663 86.1319 31.3182 91.8776 31.6823V31.7281C98.8195 32.1645 105.495 34.4972 111.137 38.4588C116.78 42.4204 121.163 47.8505 123.782 54.1265V54.1985C124.003 54.694 124.196 55.2009 124.36 55.717C124.393 55.7874 124.422 55.8595 124.447 55.933C124.619 56.3615 124.767 56.7985 124.891 57.2421C124.938 57.4188 124.985 57.589 125.025 57.7657C125.113 58.106 125.247 58.4202 125.335 58.8457C125.433 59.1721 125.509 59.5044 125.563 59.8406C125.603 60.0566 125.65 60.2726 125.691 60.4428C127.368 68.5441 126.128 76.9608 122.18 84.2762C118.231 91.5916 111.816 97.359 104.013 100.608C96.2099 103.856 87.4959 104.388 79.3377 102.113C71.1796 99.8377 64.0752 94.895 59.2205 88.1166L59.1734 88.0708C56.0664 83.7313 53.9993 78.7679 53.1246 73.5466C53.7005 73.2907 54.226 72.9385 54.6771 72.5059C55.5049 71.7511 56.1648 70.8388 56.6157 69.8255C57.0665 68.8121 57.2989 67.7194 57.2983 66.615V43.7258C57.2966 43.5571 57.2603 43.3904 57.1914 43.2356C57.1224 43.0808 57.0224 42.941 56.8971 42.8245C56.7718 42.708 56.6238 42.6171 56.4618 42.5572C56.2999 42.4973 56.1272 42.4695 55.9541 42.4757C55.6154 42.5005 55.2988 42.6493 55.0681 42.8921C54.8374 43.135 54.7098 43.4539 54.7107 43.7847V61.562C54.6894 61.8229 54.568 62.0664 54.3706 62.244C54.1731 62.4216 53.9142 62.5203 53.6455 62.5203C53.3767 62.5203 53.1178 62.4216 52.9204 62.244C52.7229 62.0664 52.6015 61.8229 52.5802 61.562V43.7913C52.5811 43.4605 52.4534 43.1415 52.2227 42.8987C51.9921 42.6558 51.6756 42.507 51.3368 42.4822C50.9905 42.4819 50.6575 42.6117 50.4071 42.8446C50.1567 43.0775 50.0082 43.3955 49.9926 43.7324V61.6013C50.0043 61.7445 49.9854 61.8884 49.9372 62.0241C49.889 62.1599 49.8124 62.2844 49.7124 62.3899C49.6123 62.4954 49.4909 62.5796 49.3558 62.6372C49.2207 62.6947 49.0748 62.7245 48.9273 62.7245C48.7799 62.7245 48.634 62.6947 48.4989 62.6372C48.3638 62.5796 48.2424 62.4954 48.1423 62.3899C48.0423 62.2844 47.9657 62.1599 47.9175 62.0241C47.8693 61.8884 47.8504 61.7445 47.8621 61.6013V43.8371C47.8652 43.6721 47.8349 43.5081 47.7729 43.3544C47.7109 43.2008 47.6184 43.0606 47.5007 42.9418C47.3831 42.8229 47.2426 42.7279 47.0872 42.6619C46.9318 42.596 46.7646 42.5605 46.5952 42.5575C46.4257 42.5545 46.2573 42.584 46.0996 42.6444C45.9418 42.7048 45.7978 42.7948 45.6758 42.9094C45.5538 43.0239 45.4562 43.1608 45.3884 43.3121C45.3207 43.4634 45.2843 43.6263 45.2812 43.7913V61.6013C45.2929 61.7445 45.274 61.8884 45.2258 62.0241C45.1776 62.1599 45.101 62.2844 45.001 62.3899C44.9009 62.4954 44.7795 62.5796 44.6444 62.6372C44.5093 62.6947 44.3634 62.7245 44.2159 62.7245C44.0685 62.7245 43.9226 62.6947 43.7875 62.6372C43.6524 62.5796 43.531 62.4954 43.4309 62.3899C43.3309 62.2844 43.2543 62.1599 43.2061 62.0241C43.1579 61.8884 43.139 61.7445 43.1507 61.6013V43.8371C43.1663 43.6654 43.1454 43.4923 43.0894 43.3288C43.0333 43.1652 42.9433 43.0146 42.8249 42.8864C42.7066 42.7582 42.5624 42.655 42.4013 42.5834C42.2403 42.5118 42.0658 42.4732 41.8888 42.47C41.7118 42.4669 41.536 42.4992 41.3724 42.5651C41.2088 42.6309 41.0608 42.7289 40.9377 42.8528C40.8146 42.9767 40.719 43.124 40.6569 43.2855C40.5948 43.4469 40.5674 43.6191 40.5765 43.7913V66.6347C40.5807 67.7383 40.8152 68.8296 41.2658 69.8423C41.7164 70.855 42.3737 71.7679 43.1977 72.5255C43.7913 73.0417 44.4739 73.4516 45.214 73.7364C46.1407 80.1634 48.5292 86.3078 52.2053 91.7212C55.8814 97.1345 60.7523 101.68 66.4624 105.026C72.1725 108.373 78.5777 110.435 85.2106 111.063C91.8435 111.69 98.5367 110.868 104.802 108.655C111.066 106.443 116.745 102.895 121.423 98.2729C126.1 93.6503 129.659 88.0688 131.839 81.9359C134.019 75.8029 134.766 69.2733 134.024 62.8235C133.283 56.3738 131.072 50.1667 127.553 44.6553Z" fill="white"/>
<path fill-rule="evenodd" clip-rule="evenodd" d="M99.4263 63.2438C99.3263 63.0652 99.1599 62.9305 98.9613 62.8672C98.7627 62.8039 98.5468 62.8169 98.3577 62.9035L89.1634 67.5245L84.6267 62.0526C84.5574 61.967 84.4713 61.8957 84.3734 61.8427C84.2756 61.7898 84.1679 61.7562 84.0566 61.744C83.9454 61.7319 83.8327 61.7413 83.7253 61.7718C83.6178 61.8023 83.5176 61.8532 83.4304 61.9217C83.254 62.0603 83.141 62.2612 83.1158 62.4806C83.0906 62.7 83.1554 62.9202 83.296 63.0933L88.0948 68.8402C88.1463 68.8945 88.2079 68.9389 88.2763 68.9711C88.3941 69.1172 88.5606 69.2187 88.7471 69.2582C88.9336 69.2976 89.1283 69.2725 89.2978 69.1871L99.1373 64.2846C99.3127 64.1798 99.4404 64.0136 99.4941 63.8201C99.5478 63.6266 99.5236 63.4205 99.4263 63.2438V63.2438Z" fill="white"/>
<path d="M117.822 136.12H109.506L108.248 139.013C108.187 139.164 108.093 139.3 107.972 139.41C107.854 139.507 107.718 139.582 107.572 139.63C107.428 139.683 107.276 139.712 107.122 139.715C106.96 139.721 106.819 139.7 106.648 139.636C106.472 139.524 106.391 139.456 106.282 139.35C106.173 139.244 106.092 139.114 106.046 138.971C105.944 138.683 105.96 138.368 106.089 138.091L112.515 123.547C112.581 123.393 112.68 123.256 112.806 123.143C112.932 123.031 113.081 122.947 113.244 122.897C113.407 122.847 113.579 122.832 113.748 122.854C113.917 122.876 114.079 122.933 114.223 123.022C114.405 123.158 114.546 123.339 114.63 123.547L121.1 138.091C121.23 138.368 121.245 138.683 121.144 138.971C121.106 139.112 121.034 139.241 120.932 139.348C120.831 139.454 120.703 139.534 120.562 139.581C120.278 139.706 119.957 139.724 119.661 139.63C119.508 139.583 119.368 139.503 119.251 139.396C119.134 139.29 119.043 139.159 118.985 139.013L117.822 136.12ZM110.494 133.886H116.877L113.686 126.525L110.494 133.886Z" fill="white"/>
<path fill-rule="evenodd" clip-rule="evenodd" d="M79.4388 138.364C79.4388 139.054 79.9981 139.614 80.6881 139.614L89.5368 139.614C90.2268 139.614 90.7861 139.054 90.7861 138.364C90.7861 137.674 90.2268 137.114 89.5368 137.114L81.9373 137.114L81.9373 123.992C81.9373 123.302 81.378 122.742 80.6881 122.742C79.9981 122.742 79.4388 123.302 79.4388 123.992L79.4388 138.364Z" fill="white"/>
<path fill-rule="evenodd" clip-rule="evenodd" d="M74.0652 139.614C74.7661 139.614 75.3343 139.054 75.3343 138.364L75.3343 123.992C75.3343 123.302 74.7661 122.742 74.0652 122.742C73.3643 122.742 72.7961 123.302 72.7961 123.992L72.7961 138.364C72.7961 139.054 73.3643 139.614 74.0652 139.614Z" fill="white"/>
<path fill-rule="evenodd" clip-rule="evenodd" d="M62.3643 139.655C61.7243 139.399 61.4128 138.673 61.6685 138.033L67.4034 123.68C67.6591 123.041 68.3852 122.729 69.0252 122.985C69.6652 123.24 69.9767 123.967 69.721 124.607L63.9861 138.959C63.7304 139.599 63.0043 139.911 62.3643 139.655Z" fill="white"/>
<path fill-rule="evenodd" clip-rule="evenodd" d="M63.2018 139.655C63.8418 139.399 64.1533 138.673 63.8975 138.033L58.1627 123.68C57.9069 123.041 57.1808 122.729 56.5408 122.985C55.9008 123.24 55.5893 123.967 55.8451 124.607L61.5799 138.959C61.8357 139.599 62.5618 139.911 63.2018 139.655Z" fill="white"/>
<path fill-rule="evenodd" clip-rule="evenodd" d="M94.7453 139.555C95.4462 139.555 96.0144 138.995 96.0144 138.305L96.0144 123.933C96.0144 123.242 95.4462 122.683 94.7453 122.683C94.0444 122.683 93.4762 123.242 93.4762 123.933L93.4762 138.305C93.4762 138.995 94.0444 139.555 94.7453 139.555Z" fill="white"/>
<path fill-rule="evenodd" clip-rule="evenodd" d="M93.8853 133.314C93.3996 132.825 93.4022 132.035 93.8912 131.55L102.418 123.079C102.907 122.593 103.697 122.596 104.183 123.085C104.669 123.573 104.666 124.364 104.177 124.849L95.6501 133.32C95.1611 133.806 94.371 133.803 93.8853 133.314Z" fill="white"/>
<path fill-rule="evenodd" clip-rule="evenodd" d="M96.4586 129.041C97.0074 128.624 97.7902 128.731 98.2072 129.279L104.499 137.559C104.916 138.108 104.81 138.891 104.261 139.308C103.712 139.725 102.929 139.618 102.512 139.07L96.2201 130.789C95.8031 130.241 95.9099 129.458 96.4586 129.041Z" fill="white"/>
<defs>
<filter id="filter0_d" x="0" y="0" width="176" height="176" filterUnits="userSpaceOnUse" color-interpolation-filters="sRGB">
<feFlood flood-opacity="0" result="BackgroundImageFix"/>
<feColorMatrix in="SourceAlpha" type="matrix" values="0 0 0 0 0 0 0 0 0 0 0 0 0 0 0 0 0 0 127 0"/>
<feOffset dy="4"/>
<feGaussianBlur stdDeviation="5"/>
<feColorMatrix type="matrix" values="0 0 0 0 0 0 0 0 0 0 0 0 0 0 0 0 0 0 0.1 0"/>
<feBlend mode="normal" in2="BackgroundImageFix" result="effect1_dropShadow"/>
<feBlend mode="normal" in="SourceGraphic" in2="effect1_dropShadow" result="shape"/>
</filter>
</defs>
</svg>
