<svg width="1013" height="1013" viewBox="0 0 1013 1013" fill="none" xmlns="http://www.w3.org/2000/svg">
<circle cx="506.5" cy="506.5" r="506.5" fill="#0ABB66"/>
<path fill-rule="evenodd" clip-rule="evenodd" d="M621.716 428.964H602.904C602.017 429.014 601.128 428.886 600.291 428.588C599.453 428.29 598.683 427.829 598.026 427.23C597.368 426.631 596.836 425.908 596.461 425.101C596.086 424.295 595.876 423.422 595.842 422.533C595.88 421.647 596.094 420.777 596.471 419.974C596.848 419.172 597.38 418.452 598.037 417.857C598.694 417.262 599.462 416.803 600.298 416.507C601.133 416.212 602.019 416.085 602.904 416.135H621.716C622.597 416.071 623.481 416.19 624.314 416.483C625.147 416.777 625.911 417.239 626.557 417.841C627.204 418.442 627.719 419.171 628.072 419.981C628.425 420.792 628.606 421.666 628.606 422.549C628.606 423.433 628.425 424.307 628.072 425.117C627.719 425.928 627.204 426.656 626.557 427.258C625.911 427.86 625.147 428.322 624.314 428.616C623.481 428.909 622.597 429.028 621.716 428.964ZM593.666 350.179L580.845 363.009C579.458 364.309 577.625 365.029 575.724 365.018C574.891 364.995 574.071 364.805 573.312 364.459C572.554 364.114 571.871 363.621 571.306 363.009C570.034 361.712 569.322 359.968 569.322 358.152C569.322 356.335 570.034 354.591 571.306 353.294L584.695 340.465C585.269 339.832 585.969 339.326 586.75 338.98C587.532 338.634 588.376 338.455 589.23 338.455C590.085 338.455 590.93 338.634 591.711 338.98C592.492 339.326 593.192 339.832 593.766 340.465C594.971 341.801 595.63 343.542 595.611 345.342C595.592 347.141 594.898 348.868 593.666 350.179ZM593.666 504.265C593.116 504.897 592.437 505.403 591.674 505.75C590.912 506.096 590.084 506.276 589.247 506.275C588.403 506.323 587.56 506.165 586.79 505.815C586.021 505.465 585.348 504.933 584.829 504.265L571.44 491.436C570.802 490.796 570.297 490.036 569.953 489.201C569.609 488.366 569.433 487.471 569.434 486.567C569.436 485.663 569.615 484.769 569.962 483.935C570.309 483.101 570.817 482.343 571.456 481.705C572.096 481.067 572.855 480.562 573.69 480.217C574.524 479.873 575.419 479.697 576.322 479.698C577.225 479.7 578.119 479.879 578.952 480.226C579.786 480.574 580.543 481.082 581.18 481.722L594.034 495.121C594.649 495.738 595.13 496.476 595.446 497.288C595.763 498.1 595.908 498.969 595.874 499.84C595.839 500.711 595.625 501.566 595.245 502.35C594.865 503.135 594.328 503.832 593.666 504.399V504.265ZM518.218 532.168C518.218 533.874 517.54 535.51 516.335 536.716C515.13 537.922 513.495 538.6 511.791 538.6C510.086 538.6 508.452 537.922 507.246 536.716C506.041 535.51 505.364 533.874 505.364 532.168V513.343C505.272 512.443 505.37 511.534 505.651 510.675C505.932 509.815 506.39 509.024 506.996 508.353C507.602 507.682 508.341 507.145 509.167 506.778C509.993 506.411 510.887 506.221 511.791 506.221C512.694 506.221 513.588 506.411 514.414 506.778C515.24 507.145 515.98 507.682 516.585 508.353C517.191 509.024 517.649 509.815 517.931 510.675C518.212 511.534 518.309 512.443 518.218 513.343V532.168ZM452.242 363.243C451.62 363.871 450.88 364.369 450.064 364.709C449.248 365.05 448.373 365.225 447.489 365.225C446.605 365.225 445.73 365.05 444.914 364.709C444.099 364.369 443.358 363.871 442.736 363.243L429.681 350.179C428.394 348.887 427.673 347.135 427.676 345.31C427.679 343.485 428.406 341.737 429.698 340.448C430.99 339.16 432.74 338.438 434.564 338.441C436.387 338.445 438.135 339.172 439.422 340.465L452.242 353.194C453.559 354.535 454.296 356.339 454.296 358.218C454.296 360.098 453.559 361.902 452.242 363.243ZM452.242 491.57L439.422 504.399C438.047 505.698 436.225 506.418 434.334 506.409C433.5 506.389 432.679 506.201 431.92 505.855C431.161 505.51 430.479 505.015 429.916 504.399C429.284 503.828 428.779 503.13 428.434 502.351C428.088 501.572 427.909 500.729 427.909 499.877C427.909 499.025 428.088 498.182 428.434 497.403C428.779 496.624 429.284 495.927 429.916 495.355L442.736 481.956C444.029 480.666 445.78 479.941 447.606 479.941C449.432 479.941 451.184 480.666 452.477 481.956C453.649 483.296 454.276 485.028 454.233 486.809C454.19 488.59 453.479 490.289 452.242 491.57ZM420.61 428.964H402.468C401.578 429.018 400.686 428.894 399.844 428.598C399.002 428.303 398.228 427.842 397.567 427.243C396.906 426.644 396.372 425.918 395.995 425.109C395.617 424.301 395.406 423.425 395.372 422.533C395.41 421.644 395.625 420.771 396.004 419.966C396.383 419.161 396.918 418.44 397.579 417.844C398.239 417.249 399.012 416.791 399.852 416.497C400.691 416.204 401.58 416.081 402.468 416.135H420.61C422.38 416.062 424.107 416.695 425.413 417.894C426.718 419.093 427.494 420.761 427.573 422.533C427.591 423.429 427.42 424.319 427.069 425.144C426.719 425.968 426.197 426.709 425.539 427.317C424.881 427.925 424.101 428.387 423.251 428.67C422.402 428.954 421.501 429.054 420.61 428.964ZM505.364 313.467C505.272 312.567 505.37 311.658 505.651 310.798C505.932 309.939 506.39 309.148 506.996 308.476C507.602 307.805 508.341 307.269 509.167 306.901C509.993 306.534 510.887 306.344 511.791 306.344C512.694 306.344 513.588 306.534 514.414 306.901C515.24 307.269 515.98 307.805 516.585 308.476C517.191 309.148 517.649 309.939 517.931 310.798C518.212 311.658 518.309 312.567 518.218 313.467V331.622C518.309 332.522 518.212 333.431 517.931 334.29C517.649 335.15 517.191 335.941 516.585 336.612C515.98 337.283 515.24 337.82 514.414 338.187C513.588 338.554 512.694 338.744 511.791 338.744C510.887 338.744 509.993 338.554 509.167 338.187C508.341 337.82 507.602 337.283 506.996 336.612C506.39 335.941 505.932 335.15 505.651 334.29C505.37 333.431 505.272 332.522 505.364 331.622V313.467Z" fill="white"/>
<path fill-rule="evenodd" clip-rule="evenodd" d="M702.991 307.706C674.944 262.489 631.704 228.762 581.039 212.584C530.374 196.406 475.605 198.838 426.57 219.442C424.205 220.432 422.058 221.878 420.252 223.698C418.446 225.518 417.015 227.676 416.042 230.05C415.069 232.423 414.573 234.965 414.582 237.53C414.591 240.095 415.104 242.634 416.093 245C417.082 247.367 418.527 249.515 420.346 251.323C422.165 253.131 424.322 254.562 426.693 255.536C429.065 256.509 431.605 257.006 434.168 256.997C436.732 256.988 439.268 256.474 441.633 255.485C468.044 244.304 496.7 239.452 525.316 241.315V241.55C559.889 243.783 593.133 255.721 621.237 275.995C649.341 296.269 671.167 324.058 684.212 356.177V356.545C685.312 359.081 686.273 361.675 687.091 364.316C687.256 364.677 687.401 365.046 687.526 365.422C688.378 367.615 689.116 369.851 689.735 372.121C689.969 373.026 690.204 373.896 690.405 374.801C690.84 376.543 691.509 378.151 691.944 380.328C692.435 381.998 692.815 383.699 693.082 385.419C693.283 386.525 693.518 387.63 693.718 388.501C702.071 429.961 695.895 473.035 676.231 510.472C656.567 547.91 624.615 577.425 585.754 594.051C546.892 610.676 503.493 613.396 462.862 601.753C422.231 590.111 386.849 564.816 362.67 530.126L362.436 529.892C346.962 507.684 336.667 482.283 332.31 455.562C335.179 454.253 337.796 452.45 340.042 450.236C344.165 446.373 347.452 441.704 349.697 436.519C351.943 431.333 353.1 425.741 353.097 420.089V302.95C353.089 302.086 352.908 301.233 352.564 300.441C352.221 299.649 351.723 298.934 351.099 298.337C350.475 297.741 349.738 297.276 348.931 296.969C348.124 296.662 347.265 296.521 346.402 296.552C344.715 296.679 343.139 297.44 341.99 298.683C340.841 299.926 340.205 301.558 340.21 303.251V394.229C340.104 395.564 339.499 396.811 338.516 397.72C337.532 398.628 336.243 399.133 334.904 399.133C333.566 399.133 332.276 398.628 331.293 397.72C330.31 396.811 329.705 395.564 329.599 394.229V303.285C329.604 301.592 328.968 299.96 327.819 298.717C326.67 297.474 325.094 296.712 323.406 296.585C321.682 296.584 320.023 297.248 318.776 298.44C317.529 299.632 316.789 301.259 316.712 302.983V394.43C316.77 395.163 316.676 395.9 316.436 396.594C316.196 397.289 315.814 397.926 315.316 398.466C314.818 399.006 314.213 399.437 313.54 399.731C312.867 400.026 312.141 400.178 311.406 400.178C310.672 400.178 309.945 400.026 309.273 399.731C308.6 399.437 307.995 399.006 307.497 398.466C306.998 397.926 306.617 397.289 306.377 396.594C306.137 395.9 306.043 395.163 306.101 394.43V303.519C306.116 302.675 305.965 301.835 305.657 301.049C305.348 300.263 304.887 299.545 304.301 298.937C303.715 298.329 303.016 297.843 302.242 297.505C301.468 297.168 300.635 296.986 299.791 296.971C298.947 296.955 298.109 297.106 297.323 297.415C296.537 297.724 295.82 298.185 295.212 298.771C294.605 299.358 294.119 300.058 293.781 300.833C293.444 301.607 293.263 302.44 293.247 303.285V394.43C293.305 395.163 293.211 395.9 292.971 396.594C292.731 397.289 292.35 397.926 291.851 398.466C291.353 399.006 290.749 399.437 290.076 399.731C289.403 400.026 288.676 400.178 287.942 400.178C287.207 400.178 286.481 400.026 285.808 399.731C285.135 399.437 284.531 399.006 284.032 398.466C283.534 397.926 283.153 397.289 282.912 396.594C282.672 395.9 282.578 395.163 282.636 394.43V303.519C282.714 302.64 282.61 301.755 282.331 300.918C282.052 300.081 281.603 299.31 281.014 298.654C280.425 297.998 279.706 297.47 278.904 297.103C278.102 296.737 277.233 296.539 276.352 296.523C275.47 296.507 274.595 296.672 273.78 297.01C272.965 297.347 272.228 297.848 271.615 298.482C271.002 299.116 270.526 299.87 270.216 300.696C269.907 301.522 269.771 302.404 269.816 303.285V420.189C269.837 425.837 271.005 431.422 273.249 436.605C275.493 441.787 278.767 446.459 282.871 450.337C285.827 452.978 289.227 455.076 292.913 456.533C297.528 489.425 309.424 520.87 327.732 548.573C346.04 576.277 370.299 599.54 398.738 616.664C427.176 633.789 459.077 644.343 492.111 647.556C525.146 650.769 558.48 646.56 589.682 635.236C620.884 623.912 649.165 605.759 672.461 582.102C695.758 558.445 713.482 529.881 724.34 498.495C735.198 467.109 738.916 433.693 735.223 400.685C731.529 367.678 720.517 335.912 702.991 307.706Z" fill="white"/>
<path fill-rule="evenodd" clip-rule="evenodd" d="M562.903 402.836C562.405 401.922 561.577 401.232 560.588 400.909C559.598 400.585 558.523 400.651 557.581 401.094L511.79 424.743L489.196 396.74C488.85 396.302 488.421 395.937 487.934 395.666C487.447 395.395 486.91 395.223 486.356 395.161C485.802 395.098 485.241 395.147 484.706 395.303C484.171 395.459 483.672 395.719 483.238 396.07C482.359 396.779 481.796 397.807 481.671 398.93C481.545 400.053 481.868 401.18 482.568 402.066L506.468 431.476C506.724 431.754 507.031 431.981 507.372 432.146C507.959 432.894 508.788 433.413 509.717 433.615C510.645 433.817 511.615 433.688 512.459 433.251L561.464 408.162C562.338 407.626 562.973 406.775 563.241 405.785C563.509 404.795 563.388 403.74 562.903 402.836Z" fill="white"/>
<path d="M705.975 782.917H651.923L643.749 802.295C643.352 803.304 642.739 804.212 641.953 804.955C641.185 805.603 640.304 806.102 639.355 806.428C638.417 806.78 637.426 806.973 636.425 806.997C635.376 807.032 634.345 806.715 633.496 806.095C632.542 805.792 631.675 805.262 630.968 804.551C630.261 803.84 629.734 802.969 629.432 802.01C628.77 800.084 628.872 797.975 629.716 796.121L671.484 698.708C671.91 697.679 672.555 696.756 673.373 696.003C674.192 695.251 675.164 694.688 676.221 694.353C677.279 694.018 678.397 693.92 679.497 694.065C680.597 694.21 681.651 694.595 682.587 695.193C683.769 696.102 684.684 697.317 685.233 698.708L727.284 796.121C728.128 797.975 728.23 800.084 727.568 802.01C727.327 802.954 726.854 803.822 726.194 804.536C725.534 805.249 724.707 805.785 723.788 806.095C721.944 806.935 719.855 807.054 717.929 806.428C716.937 806.111 716.027 805.576 715.267 804.861C714.507 804.146 713.915 803.27 713.535 802.295L705.975 782.917ZM658.348 767.956H699.833L679.091 718.656L658.348 767.956Z" fill="white"/>
<path fill-rule="evenodd" clip-rule="evenodd" d="M449 798.63C449 803.252 452.746 807 457.367 807L516.633 807C521.254 807 525 803.252 525 798.63C525 794.007 521.254 790.259 516.633 790.259L465.734 790.259L465.734 702.37C465.734 697.748 461.988 694 457.367 694C452.746 694 449 697.748 449 702.37L449 798.63Z" fill="white"/>
<path fill-rule="evenodd" clip-rule="evenodd" d="M412.5 807C417.194 807 421 803.252 421 798.63L421 702.37C421 697.748 417.194 694 412.5 694C407.806 694 404 697.748 404 702.37L404 798.63C404 803.252 407.806 807 412.5 807Z" fill="white"/>
<path fill-rule="evenodd" clip-rule="evenodd" d="M332.764 805.752C328.478 804.04 326.391 799.176 328.104 794.89L366.514 698.761C368.227 694.475 373.09 692.388 377.377 694.101C381.663 695.814 383.75 700.677 382.037 704.964L343.627 801.092C341.914 805.379 337.051 807.465 332.764 805.752Z" fill="white"/>
<path fill-rule="evenodd" clip-rule="evenodd" d="M338.374 805.752C342.66 804.04 344.747 799.176 343.034 794.89L304.624 698.761C302.911 694.475 298.048 692.388 293.761 694.101C289.475 695.814 287.389 700.677 289.101 704.964L327.512 801.092C329.224 805.379 334.088 807.465 338.374 805.752Z" fill="white"/>
<path fill-rule="evenodd" clip-rule="evenodd" d="M546.651 807.24C551.346 807.24 555.151 803.492 555.151 798.869L555.151 702.61C555.151 697.987 551.346 694.24 546.651 694.24C541.957 694.24 538.151 697.987 538.151 702.61L538.151 798.869C538.151 803.492 541.957 807.24 546.651 807.24Z" fill="white"/>
<path fill-rule="evenodd" clip-rule="evenodd" d="M540.89 765.445C537.637 762.17 537.655 756.879 540.93 753.625L598.042 696.89C601.317 693.637 606.608 693.655 609.862 696.929C613.115 700.204 613.097 705.496 609.822 708.749L552.71 765.484C549.435 768.737 544.144 768.72 540.89 765.445Z" fill="white"/>
<path fill-rule="evenodd" clip-rule="evenodd" d="M558.126 736.824C561.801 734.031 567.044 734.746 569.837 738.421L611.98 793.879C614.773 797.554 614.057 802.797 610.382 805.59C606.707 808.383 601.464 807.668 598.671 803.992L556.528 748.535C553.735 744.86 554.451 739.617 558.126 736.824Z" fill="white"/>
</svg>
